<?xml version="1.0" standalone="no"?>
<!DOCTYPE svg PUBLIC "-//W3C//DTD SVG 20010904//EN"
 "http://www.w3.org/TR/2001/REC-SVG-20010904/DTD/svg10.dtd">
<svg version="1.0" xmlns="http://www.w3.org/2000/svg"
 width="116.000000pt" height="206.000000pt" viewBox="0 0 116.000000 206.000000"
 preserveAspectRatio="xMidYMid meet">

<g transform="translate(0.000000,206.000000) scale(0.100000,-0.100000)"
fill="#ffffff" stroke="none">
<path d="M497 2020 c-165 -28 -315 -177 -346 -345 -7 -35 -11 -195 -11 -395 0
-323 -1 -338 -20 -363 -38 -48 -79 -152 -94 -237 -13 -74 -13 -95 0 -167 18
-103 40 -164 89 -237 153 -231 475 -307 730 -173 33 18 90 62 126 98 108 107
159 237 159 403 -1 115 -29 208 -92 303 l-28 42 0 348 c0 380 -5 423 -57 513
-63 107 -183 190 -304 210 -71 11 -84 11 -152 0z m150 -255 c52 -22 72 -42 99
-100 24 -50 24 -53 24 -406 0 -394 0 -396 64 -489 46 -66 59 -118 54 -201 -12
-160 -127 -275 -287 -287 -98 -7 -166 16 -234 78 -120 110 -140 282 -48 412
65 91 64 86 70 503 5 327 8 384 22 410 45 82 148 117 236 80z"/>
<path d="M539 1011 c-21 -16 -23 -28 -27 -132 -5 -114 -5 -114 -35 -134 -88
-58 -108 -179 -46 -267 25 -35 96 -68 145 -68 164 1 244 206 123 315 -21 19
-43 35 -48 35 -5 0 -11 52 -13 116 -3 108 -5 117 -27 135 -29 24 -43 24 -72 0z"/>
</g>
</svg>
