<?xml version="1.0" standalone="no"?>
<!DOCTYPE svg PUBLIC "-//W3C//DTD SVG 20010904//EN"
 "http://www.w3.org/TR/2001/REC-SVG-20010904/DTD/svg10.dtd">
<svg version="1.0" xmlns="http://www.w3.org/2000/svg"
 width="229.000000pt" height="206.000000pt" viewBox="0 0 229.000000 206.000000"
 preserveAspectRatio="xMidYMid meet">

<g transform="translate(0.000000,206.000000) scale(0.100000,-0.100000)"
fill="#ffffff" stroke="none">
<path d="M1103 2015 c-18 -7 -115 -89 -217 -182 -196 -177 -214 -201 -202
-268 7 -37 52 -81 93 -91 43 -11 96 14 168 81 l70 64 5 -222 c5 -241 10 -260
66 -285 36 -17 106 -15 132 4 43 30 47 49 52 284 l5 225 77 -72 c60 -55 86
-73 117 -78 98 -16 172 85 127 174 -8 15 -57 66 -108 112 -51 46 -131 120
-178 163 -79 73 -130 107 -162 106 -7 -1 -27 -7 -45 -15z"/>
<path d="M718 1133 c-14 -15 -60 -231 -84 -391 -4 -24 -12 -49 -19 -56 -7 -7
-46 -18 -87 -25 -181 -29 -344 -65 -360 -79 -28 -24 -22 -52 28 -127 83 -125
59 -115 281 -115 l193 0 19 32 c98 166 213 250 379 278 200 33 409 -66 513
-245 l35 -60 200 -3 201 -2 61 91 c63 94 73 126 48 152 -13 12 -156 44 -356
77 -36 6 -73 13 -82 16 -20 6 -18 -5 -58 219 -41 230 -45 243 -76 251 -34 9
-61 -6 -224 -121 -206 -145 -161 -143 -353 -11 -91 63 -174 119 -185 125 -30
16 -57 13 -74 -6z"/>
<path d="M80 202 c-48 -23 -65 -61 -50 -108 23 -67 -33 -64 1115 -64 1148 0
1092 -3 1115 64 15 47 -2 85 -50 108 -33 17 -104 18 -1065 18 -961 0 -1032 -1
-1065 -18z"/>
</g>
</svg>
