<?xml version="1.0" standalone="no"?>
<!DOCTYPE svg PUBLIC "-//W3C//DTD SVG 20010904//EN"
 "http://www.w3.org/TR/2001/REC-SVG-20010904/DTD/svg10.dtd">
<svg version="1.0" xmlns="http://www.w3.org/2000/svg"
 width="227.000000pt" height="204.000000pt" viewBox="0 0 227.000000 204.000000"
 preserveAspectRatio="xMidYMid meet">

<g transform="translate(0.000000,204.000000) scale(0.100000,-0.100000)"
fill="#ffffff" stroke="none">
<path d="M1070 2012 c-64 -31 -70 -59 -70 -301 l0 -213 -62 57 c-116 108 -169
122 -236 61 -33 -31 -37 -39 -37 -85 0 -42 5 -55 30 -81 38 -41 321 -299 359
-328 32 -25 97 -29 132 -9 41 23 376 331 390 358 26 52 18 97 -25 140 -32 32
-45 39 -77 39 -49 -1 -65 -10 -150 -88 l-69 -63 -5 224 c-6 249 -10 265 -75
293 -45 18 -63 18 -105 -4z"/>
<path d="M697 1133 c-8 -10 -22 -56 -31 -103 -51 -281 -64 -343 -75 -350 -7
-4 -45 -13 -84 -19 -179 -29 -344 -65 -359 -79 -28 -24 -22 -52 28 -127 83
-125 59 -115 281 -115 l193 0 19 32 c98 166 213 250 379 278 200 33 409 -66
513 -245 l35 -60 200 -3 201 -2 61 91 c65 97 73 126 45 152 -17 14 -175 49
-356 78 -81 12 -107 27 -107 59 0 23 -57 333 -71 382 -7 28 -16 39 -35 44 -34
9 -61 -6 -224 -121 -206 -145 -161 -143 -353 -11 -91 63 -174 119 -185 125
-30 16 -57 13 -75 -6z"/>
<path d="M60 202 c-48 -23 -65 -61 -50 -108 23 -67 -33 -64 1115 -64 1148 0
1092 -3 1115 64 15 47 -2 85 -50 108 -33 17 -104 18 -1065 18 -961 0 -1032 -1
-1065 -18z"/>
</g>
</svg>
