<?xml version="1.0" standalone="no"?>
<!DOCTYPE svg PUBLIC "-//W3C//DTD SVG 20010904//EN"
 "http://www.w3.org/TR/2001/REC-SVG-20010904/DTD/svg10.dtd">
<svg version="1.0" xmlns="http://www.w3.org/2000/svg"
 width="204.000000pt" height="205.000000pt" viewBox="0 0 204.000000 205.000000"
 preserveAspectRatio="xMidYMid meet">

<g transform="translate(0.000000,205.000000) scale(0.100000,-0.100000)"
fill="#ffffff" stroke="none">
<path d="M1210 2003 c-95 -49 -84 -194 18 -223 20 -5 75 -10 120 -10 96 0 133
-15 157 -66 29 -62 10 -135 -44 -167 -27 -16 -85 -17 -686 -17 -720 0 -702 1
-738 -59 -9 -16 -17 -48 -17 -70 0 -33 7 -49 34 -79 l34 -37 654 -3 c685 -3
728 -1 818 41 62 29 136 106 168 175 24 50 27 69 26 157 0 86 -4 108 -26 155
-39 83 -89 134 -172 176 -69 34 -81 36 -192 41 -102 4 -124 2 -154 -14z"/>
<path d="M72 1120 c-40 -25 -55 -61 -49 -120 4 -35 12 -51 38 -72 l33 -28 783
0 c863 0 834 2 873 -62 40 -66 13 -155 -55 -184 -21 -9 -69 -14 -126 -14 -130
0 -172 -29 -172 -120 0 -94 41 -120 185 -120 172 0 259 34 347 137 55 65 76
128 76 233 0 55 -6 103 -18 135 -20 58 -81 133 -142 175 -88 60 -82 60 -950
60 -772 0 -791 -1 -823 -20z"/>
<path d="M110 761 c-58 -14 -90 -57 -90 -118 0 -35 6 -50 34 -81 l34 -37 306
-5 306 -5 32 -33 c29 -29 33 -39 33 -88 0 -51 -3 -58 -37 -90 -37 -34 -38 -34
-133 -34 -148 0 -199 -33 -197 -126 1 -88 52 -124 175 -124 92 0 178 16 235
42 62 30 138 108 170 175 24 51 27 70 27 158 0 88 -3 107 -27 157 -51 109
-150 184 -273 207 -62 12 -551 13 -595 2z"/>
</g>
</svg>
